<svg data-name="Layer 1" xmlns="http://www.w3.org/2000/svg" width="539.228" height="727.778" viewBox="0 0 539.228 727.778"><path d="M539.228 172.947h-3.999V63.402A63.402 63.402 0 00471.828 0H239.74a63.402 63.402 0 00-63.402 63.402v600.974a63.402 63.402 0 0063.402 63.402h232.086a63.402 63.402 0 0063.402-63.402V250.923h4z" fill="#3f3d56"/><path d="M474.386 16.495H444.09a22.495 22.495 0 01-20.827 30.99h-132.96a22.495 22.495 0 01-20.827-30.99H241.18a47.348 47.348 0 00-47.347 47.348v600.092a47.348 47.348 0 0047.347 47.348h233.205a47.348 47.348 0 0047.348-47.348V63.843a47.348 47.348 0 00-47.348-47.348z" fill="#fff"/><path fill="#e6e6e6" d="M223.5 134.488h268.567V593.29H223.5z"/><path d="M133.304 231.972c12.311 10.26-12.31 42.177-12.31 42.177s58.476 2.28 53.86 2.28-8.464-48.447-8.464-48.447-45.397-6.27-33.086 3.99z" fill="#ffb8b8"/><path d="M109.529 361.803l53 19 29 12s19 52 28 75-20 60-20 60 3 11 0 16a54.36 54.36 0 00-4 8c-1 2-12 1-24 0s-1-20-1-20 10-40 11-41c.934-.933 3.612-7.973.704-10.528a25.95 25.95 0 01-6.537-8.13 30.09 30.09 0 00-5.167-7.342s-31.695-46.74-47.347-57.37-52 2-52 2 17.347 26.37 17.347 32.37 1 9 4 11 2 6 2 10 3 12 8 16 6 8 5 16-28 4-28 4l-13-25s-20-32-33-66c-6.5-17 .25-28.5 8.625-35.75a41.39 41.39 0 0129.02-9.764l47.008 2.144-33.653-9.63z" fill="#2f2e41"/><path d="M284.529 272.803l57-26s20-34 8-38-22 30-22 30l-41 8zm-226 18s-29 26-30 29-19 11-27-3 18-13 18-13l18-23z" fill="#ffb8b8"/><path d="M29.182 275.433l31 23 51-18c-9.48 29.678-2.053 61.11-33.189 79.315l118 40c-10.443-42.049 6.05-76.859 20.189-119.315 22.394-11.54 50.484-8.811 81 0v-41l-124 7-19.189 10.315-22.811-6.315c-33.022-5.353-74.279 6.346-102 25z" fill="#6c63ff"/><path d="M105.529 493.803c3 2 8 21 9 28s-8 10-13 11-4 4-7 7-14 4-29 1 7-22 9-23 8-24 8-24 20-2 23 0zm83 55l8 21 7.564 11.347a25.696 25.696 0 013.632 20.91c-1.274 4.688-3.915 9.118-9.196 10.743-13 4-21-21-21-21s-7-14-12-27 4-20 4-20z" fill="#2f2e41"/><circle cx="150.175" cy="220.662" r="23.996" fill="#ffb8b8"/><path d="M177.377 214.732a22.827 22.827 0 00-1.548-18.547c-3.082-5.466-9.018-10.59-20.43-10.88-24.898-.63-35.688 18.143-34.285 23.648s6.422 18.603 6.422 18.603-3.112-12.612 3.112-13.873 30.345-6.306 37.348-.631a14.233 14.233 0 015.446 13.243z" fill="#2f2e41"/><circle cx="358.182" cy="651.748" r="26" fill="#e6e6e6"/></svg>