<svg data-name="Layer 1" xmlns="http://www.w3.org/2000/svg" width="782.39" height="634.123" viewBox="0 0 782.39 634.123"><path fill="#3f3d56" d="M782.009 634.123H524.27v-2.106h258.12l-.381 2.106z"/><circle cx="6.813" cy="6.814" r="6.813" fill="#e6e6e6"/><circle cx="41.302" cy="6.814" r="6.813" fill="#e6e6e6"/><circle cx="75.791" cy="6.814" r="6.813" fill="#e6e6e6"/><circle cx="110.28" cy="6.814" r="6.813" fill="#e6e6e6"/><circle cx="144.769" cy="6.814" r="6.813" fill="#e6e6e6"/><circle cx="179.258" cy="6.814" r="6.813" fill="#e6e6e6"/><circle cx="213.747" cy="6.814" r="6.813" fill="#e6e6e6"/><circle cx="248.236" cy="6.814" r="6.813" fill="#e6e6e6"/><circle cx="282.725" cy="6.814" r="6.813" fill="#e6e6e6"/><circle cx="317.214" cy="6.814" r="6.813" fill="#e6e6e6"/><circle cx="6.813" cy="41.736" r="6.813" fill="#e6e6e6"/><circle cx="41.302" cy="41.736" r="6.813" fill="#e6e6e6"/><circle cx="75.791" cy="41.736" r="6.813" fill="#e6e6e6"/><circle cx="110.28" cy="41.736" r="6.813" fill="#6c63ff"/><circle cx="144.769" cy="41.736" r="6.813" fill="#e6e6e6"/><circle cx="179.258" cy="41.736" r="6.813" fill="#e6e6e6"/><circle cx="213.747" cy="41.736" r="6.813" fill="#e6e6e6"/><circle cx="248.236" cy="41.736" r="6.813" fill="#e6e6e6"/><circle cx="282.725" cy="41.736" r="6.813" fill="#e6e6e6"/><circle cx="317.214" cy="41.736" r="6.813" fill="#e6e6e6"/><circle cx="6.813" cy="76.658" r="6.813" fill="#e6e6e6"/><circle cx="41.302" cy="76.658" r="6.813" fill="#e6e6e6"/><circle cx="75.791" cy="76.658" r="6.813" fill="#e6e6e6"/><circle cx="110.28" cy="76.658" r="6.813" fill="#e6e6e6"/><circle cx="144.769" cy="76.658" r="6.813" fill="#e6e6e6"/><circle cx="179.258" cy="76.658" r="6.813" fill="#e6e6e6"/><circle cx="213.747" cy="76.658" r="6.813" fill="#e6e6e6"/><circle cx="248.236" cy="76.658" r="6.813" fill="#e6e6e6"/><circle cx="282.725" cy="76.658" r="6.813" fill="#e6e6e6"/><circle cx="317.214" cy="76.658" r="6.813" fill="#e6e6e6"/><circle cx="6.813" cy="111.58" r="6.813" fill="#e6e6e6"/><circle cx="41.302" cy="111.58" r="6.813" fill="#e6e6e6"/><circle cx="75.791" cy="111.58" r="6.813" fill="#e6e6e6"/><circle cx="110.28" cy="111.58" r="6.813" fill="#e6e6e6"/><circle cx="144.769" cy="111.58" r="6.813" fill="#e6e6e6"/><circle cx="179.258" cy="111.58" r="6.813" fill="#e6e6e6"/><circle cx="213.747" cy="111.58" r="6.813" fill="#e6e6e6"/><circle cx="248.236" cy="111.58" r="6.813" fill="#e6e6e6"/><circle cx="282.725" cy="111.58" r="6.813" fill="#e6e6e6"/><circle cx="317.214" cy="111.58" r="6.813" fill="#e6e6e6"/><circle cx="6.813" cy="146.502" r="6.813" fill="#e6e6e6"/><circle cx="41.302" cy="146.502" r="6.813" fill="#6c63ff"/><circle cx="75.791" cy="146.502" r="6.813" fill="#e6e6e6"/><circle cx="110.28" cy="146.502" r="6.813" fill="#e6e6e6"/><circle cx="144.769" cy="146.502" r="6.813" fill="#e6e6e6"/><circle cx="179.258" cy="146.502" r="6.813" fill="#e6e6e6"/><circle cx="213.747" cy="146.502" r="6.813" fill="#e6e6e6"/><circle cx="248.236" cy="146.502" r="6.813" fill="#e6e6e6"/><circle cx="282.725" cy="146.502" r="6.813" fill="#e6e6e6"/><circle cx="317.214" cy="146.502" r="6.813" fill="#e6e6e6"/><circle cx="6.813" cy="181.424" r="6.813" fill="#e6e6e6"/><circle cx="41.302" cy="181.424" r="6.813" fill="#e6e6e6"/><circle cx="75.791" cy="181.424" r="6.813" fill="#e6e6e6"/><circle cx="110.28" cy="181.424" r="6.813" fill="#e6e6e6"/><circle cx="144.769" cy="181.424" r="6.813" fill="#e6e6e6"/><circle cx="179.258" cy="181.424" r="6.813" fill="#e6e6e6"/><circle cx="213.747" cy="181.424" r="6.813" fill="#e6e6e6"/><circle cx="248.236" cy="181.424" r="6.813" fill="#e6e6e6"/><circle cx="282.725" cy="181.424" r="6.813" fill="#e6e6e6"/><circle cx="317.214" cy="181.424" r="6.813" fill="#e6e6e6"/><circle cx="6.813" cy="216.346" r="6.813" fill="#e6e6e6"/><circle cx="41.302" cy="216.346" r="6.813" fill="#e6e6e6"/><circle cx="75.791" cy="216.346" r="6.813" fill="#6c63ff"/><circle cx="110.28" cy="216.346" r="6.813" fill="#e6e6e6"/><circle cx="144.769" cy="216.346" r="6.813" fill="#e6e6e6"/><circle cx="179.258" cy="216.346" r="6.813" fill="#e6e6e6"/><circle cx="213.747" cy="216.346" r="6.813" fill="#e6e6e6"/><circle cx="248.236" cy="216.346" r="6.813" fill="#e6e6e6"/><circle cx="282.725" cy="216.346" r="6.813" fill="#e6e6e6"/><circle cx="317.214" cy="216.346" r="6.813" fill="#e6e6e6"/><circle cx="6.813" cy="251.268" r="6.813" fill="#e6e6e6"/><circle cx="41.302" cy="251.268" r="6.813" fill="#e6e6e6"/><circle cx="75.791" cy="251.268" r="6.813" fill="#e6e6e6"/><circle cx="110.28" cy="251.268" r="6.813" fill="#e6e6e6"/><circle cx="144.769" cy="251.268" r="6.813" fill="#e6e6e6"/><circle cx="179.258" cy="251.268" r="6.813" fill="#e6e6e6"/><circle cx="213.747" cy="251.268" r="6.813" fill="#e6e6e6"/><circle cx="248.236" cy="251.268" r="6.813" fill="#e6e6e6"/><circle cx="282.725" cy="251.268" r="6.813" fill="#e6e6e6"/><circle cx="317.214" cy="251.268" r="6.813" fill="#e6e6e6"/><circle cx="6.813" cy="286.19" r="6.813" fill="#e6e6e6"/><circle cx="41.302" cy="286.19" r="6.813" fill="#e6e6e6"/><circle cx="75.791" cy="286.19" r="6.813" fill="#e6e6e6"/><circle cx="110.28" cy="286.19" r="6.813" fill="#e6e6e6"/><circle cx="144.769" cy="286.19" r="6.813" fill="#e6e6e6"/><circle cx="179.258" cy="286.19" r="6.813" fill="#e6e6e6"/><circle cx="213.747" cy="286.19" r="6.813" fill="#e6e6e6"/><circle cx="248.236" cy="286.19" r="6.813" fill="#e6e6e6"/><circle cx="282.725" cy="286.19" r="6.813" fill="#e6e6e6"/><circle cx="317.214" cy="286.19" r="6.813" fill="#e6e6e6"/><circle cx="6.813" cy="321.112" r="6.813" fill="#e6e6e6"/><circle cx="41.302" cy="321.112" r="6.813" fill="#e6e6e6"/><circle cx="75.791" cy="321.112" r="6.813" fill="#e6e6e6"/><circle cx="110.28" cy="321.112" r="6.813" fill="#e6e6e6"/><circle cx="144.769" cy="321.112" r="6.813" fill="#e6e6e6"/><circle cx="179.258" cy="321.112" r="6.813" fill="#e6e6e6"/><circle cx="213.747" cy="321.112" r="6.813" fill="#e6e6e6"/><circle cx="248.236" cy="321.112" r="6.813" fill="#e6e6e6"/><circle cx="282.725" cy="321.112" r="6.813" fill="#e6e6e6"/><circle cx="317.214" cy="321.112" r="6.813" fill="#e6e6e6"/><path d="M400.404 60.892a8.614 8.614 0 018.614 8.614v344.56a8.614 8.614 0 01-8.614 8.613H153.183a8.614 8.614 0 01-8.614-8.614V69.505a8.614 8.614 0 018.614-8.613h247.221" fill="#e6e6e6"/><path d="M154.186 413.062H399.4V70.51H154.186z" fill="#fff"/><path d="M344.844 124.704a1.723 1.723 0 011.723 1.723v3.446a1.723 1.723 0 01-1.723 1.722H208.743a1.723 1.723 0 01-1.723-1.722v-3.446a1.723 1.723 0 011.723-1.723h136.101m0 16.366a1.723 1.723 0 011.723 1.723v3.446a1.723 1.723 0 01-1.723 1.723H208.743a1.723 1.723 0 01-1.723-1.723v-3.446a1.723 1.723 0 011.723-1.722h136.101" fill="#e6e6e6"/><path d="M344.844 157.437a1.723 1.723 0 011.723 1.723v3.446a1.723 1.723 0 01-1.723 1.722H208.743a1.723 1.723 0 01-1.723-1.722v-3.446a1.723 1.723 0 011.723-1.723h136.101" fill="#6c63ff"/><path d="M344.844 174.162a1.723 1.723 0 011.723 1.723v3.445a1.723 1.723 0 01-1.723 1.723H208.743a1.723 1.723 0 01-1.723-1.723v-3.445a1.723 1.723 0 011.723-1.723h136.101m0 16.367a1.723 1.723 0 011.723 1.722v3.446a1.723 1.723 0 01-1.723 1.723H208.743a1.723 1.723 0 01-1.723-1.723v-3.446a1.723 1.723 0 011.723-1.722h136.101m0 16.366a1.723 1.723 0 011.723 1.723v3.446a1.723 1.723 0 01-1.723 1.722H208.743a1.723 1.723 0 01-1.723-1.722v-3.446a1.723 1.723 0 011.723-1.723h136.101" fill="#e6e6e6"/><path d="M209.612 261.951a2.002 2.002 0 00-2 2v92.916a2.002 2.002 0 002 2h134.131a2.002 2.002 0 002-2V263.95a2.002 2.002 0 00-2-2z" fill="#6c63ff"/><path fill="#3f3d56" d="M277.241 161.182l-1.408-.374L306.56 45.221h178.225v1.457H307.679l-30.438 114.504z"/><path d="M499.348 61.24a15.29 15.29 0 1115.29-15.29 15.308 15.308 0 01-15.29 15.29zm0-29.125a13.835 13.835 0 1013.834 13.835 13.85 13.85 0 00-13.834-13.835z" fill="#3f3d56"/><circle cx="499.348" cy="45.95" r="5.825" fill="#6c63ff"/><path fill="#3f3d56" d="M272.477 356.941l1.407.376-30.947 115.528-178.225-.341.003-1.457 177.105.34 30.657-114.446z"/><path d="M50.18 456.457a15.29 15.29 0 11-15.32 15.261 15.308 15.308 0 0115.32-15.261zm-.056 29.125a13.835 13.835 0 10-13.808-13.86 13.85 13.85 0 0013.808 13.86z" fill="#3f3d56"/><circle cx="50.15" cy="471.748" r="5.825" fill="#6c63ff"/><path fill="#ffb8b8" d="M616.828 600.594h-10.277l1.835-56.892 27.162 1.468-18.72 55.424z"/><path d="M618.23 633.29c-3.101 1.416-5.7-10.055-8.316-7.483-7.32 7.193-14.882 8.759-24.651 5.618l-.227-.038a4.575 4.575 0 01-2.883-5.962 4.575 4.575 0 013.174-2.832l7.784-1.946 12.221-21.494 12.477-.843a29.808 29.808 0 015.513 25.43c-1.132 4.62-2.88 8.54-5.091 9.55z" fill="#2f2e41"/><path fill="#ffb8b8" d="M714.467 593.074l-9.557 3.78-19.219-53.579 25.798-8.625 2.978 58.424z"/><path d="M727.796 622.962c-2.364 2.458-8.999-7.253-10.486-3.9-4.16 9.381-10.617 13.619-20.857 14.292l-.224.048a4.575 4.575 0 01-4.875-4.484 4.575 4.575 0 011.91-3.801l6.523-4.673 3.46-24.482 11.292-5.372a29.808 29.808 0 0114.48 21.618c.646 4.714.463 9.002-1.223 10.754z" fill="#2f2e41"/><path d="M683.266 318.36l-15.778 4.058a8.258 8.258 0 01-10.308-7.68 8.258 8.258 0 018.518-8.57l13.898.447 26.781-9.751-25.313-18.878L684 251.559l49.332 39.604a8.195 8.195 0 013.043 5.806 8.195 8.195 0 01-6.008 8.488c-11.56 9.433-28.399 12.322-47.1 12.904z" fill="#ffb8b8"/><circle cx="647.296" cy="193.566" r="25.693" fill="#ffb8b8"/><path d="M678.862 228.802L644.36 242.75a46.63 46.63 0 00-8.075-30.832l28.63-6.607c-.373 8.744 4.355 16.56 13.947 23.491z" fill="#ffb8b8"/><path d="M685.102 288.63c-27.813 2.226-43.026-1.467-66.435-15.048l8.809-20.555a17.001 17.001 0 017.003-16.278l9.147-6.479 27.895-8.075 1.251.063a15.27 15.27 0 0114.462 14.08c6.06 18.11 6.1 35.616-2.132 52.292z" fill="#6c63ff"/><path d="M679.596 331.574l-59.461-6.606-4.405-19.087c-9.763-14.737-5.501-28.237 5.873-41.109 20.733 13.306 39.978 19.056 67.536 14.682-7.329 17.824-14.097 35.34-9.543 52.12z" fill="#2f2e41"/><path d="M725.843 554.003l-47.348-2.57-15.416-122.592-12.48 121.859-56.157-2.57c17.13-80.11 29.03-156.162 25.693-226.099l58.727 5.139c19.903 20.986 29.786 54.485 35.603 94.33s10.506 86.036 11.378 132.503z" fill="#2f2e41"/><circle cx="675.58" cy="161.345" r="8.831" fill="#2f2e41"/><path d="M666.48 159.183a8.824 8.824 0 018.827-8.254c-.182-.023-.363-.052-.549-.063a8.831 8.831 0 00-1.133 17.626c.186.012.369.007.553.007a8.824 8.824 0 01-7.698-9.316z" fill="#2f2e41"/><path d="M666.43 162.954c-7.876-6.534-30.467 1.77-31.924 6.163-10.651 1.452-18.715 7.666-18.715 18.715 6.332 2.594 13.534 2.274 21.319 0 12.41 10.113 13.26 22.827 5.713 37.43l9.285.185 11.51-16.821.55 17.062 21.283-.427V200.81a51.12 51.12 0 00-5.458-23.42c-3.317-6.444-8.464-10.206-13.563-14.436z" fill="#2f2e41"/><ellipse cx="646.611" cy="200.241" rx="4.223" ry="5.912" fill="#ffb8b8"/><path d="M614.308 426.99a1.483 1.483 0 011.483 1.483v59.319a1.483 1.483 0 01-1.483 1.483h-42.561a1.483 1.483 0 01-1.483-1.483v-59.32a1.483 1.483 0 011.483-1.482h42.561" fill="#6c63ff"/><path d="M620.135 404.983l1.437 24.914a10.819 10.819 0 01-12.375 11.326c-6.33-.93-6.473-7.12-4.922-13.327l5.912-23.647c14.503-51.998 18.418-103.036 17.684-152.812a12.498 12.498 0 0112.834-12.714 12.491 12.491 0 0112.121 12.927c-2.053 58.45-10.578 111.53-32.691 153.333z" fill="#ffb8b8"/></svg>